<svg width="128" height="32" viewBox="0 0 128 32" fill="none" xmlns="http://www.w3.org/2000/svg">
<path d="M9.39822 21.8709C9.40138 21.8709 9.40452 21.8704 9.40746 21.8692C9.4104 21.868 9.41308 21.8662 9.41534 21.8639C9.4176 21.8617 9.4194 21.859 9.42063 21.856C9.42186 21.853 9.42249 21.8498 9.42249 21.8466V14.8167C9.42251 14.7433 9.45152 14.6728 9.5032 14.6208C9.65334 14.4703 9.76133 14.3561 9.82718 14.2782C10.5282 13.4525 10.9385 12.3507 10.7382 11.2806C10.4729 9.86556 8.99635 8.75647 7.59037 8.73276C6.42766 8.71301 5.47096 9.25993 4.86985 10.2697C4.3852 11.0836 4.2582 11.9434 4.48886 12.8491C4.66233 13.5324 5.0055 14.1065 5.51837 14.5712C5.53862 14.5895 5.55481 14.6118 5.5659 14.6368C5.57698 14.6618 5.58271 14.6889 5.58271 14.7162V15.2073C5.58271 15.2159 5.57926 15.2243 5.57313 15.2304C5.56699 15.2366 5.55866 15.24 5.54998 15.24H0.0507978C0.0373253 15.24 0.0244053 15.2347 0.0148788 15.2251C0.00535232 15.2156 0 15.2027 0 15.1892V0.0519277C0 0.0381558 0.00547134 0.0249477 0.0152095 0.0152095C0.0249477 0.00547134 0.0381558 0 0.0519277 0H14.9448C14.958 0 14.9706 0.00523331 14.9799 0.0145481C14.9892 0.0238629 14.9945 0.0364964 14.9945 0.0496696V5.57368C14.9945 5.57857 14.9955 5.58341 14.9974 5.58791C14.9993 5.59241 15.0021 5.59647 15.0056 5.59984C15.0092 5.60322 15.0134 5.60585 15.018 5.60756C15.0225 5.60927 15.0274 5.61004 15.0323 5.60981L15.3292 5.59739C15.3441 5.59703 15.3585 5.59122 15.3698 5.58102C15.6791 5.3005 15.9596 5.07586 16.3694 4.89863C17.4175 4.44596 18.7095 4.52273 19.6815 5.1498C20.2481 5.51555 20.6523 6.0256 20.8938 6.67996C21.6282 8.67124 20.3463 10.8335 18.1987 11.0373C17.1579 11.1359 16.2556 10.8287 15.4917 10.1156C15.4453 10.0728 15.3846 10.049 15.3218 10.049H15.0227C15.0173 10.049 15.0121 10.0511 15.0083 10.055C15.0045 10.0588 15.0024 10.0639 15.0024 10.0693L14.9358 17.5V17.8279C14.935 17.8577 14.9232 17.8865 14.9025 17.9086C14.1636 18.6954 13.7697 19.8068 14.0124 20.8758C14.2613 21.9713 15.0458 22.8033 16.1109 23.173C16.8104 23.4161 17.5186 23.4183 18.2354 23.1798C19.2672 22.8366 20.0348 21.9335 20.3243 20.8893C20.6664 19.6544 20.1285 18.486 19.178 17.6817C19.1688 17.6739 19.1615 17.6643 19.1565 17.6533C19.1515 17.6424 19.149 17.6305 19.1492 17.6185L19.2 15.4579C19.2001 15.4499 19.2034 15.4423 19.2091 15.4367C19.2148 15.4311 19.2225 15.428 19.2305 15.428H24.5993C24.6044 15.428 24.6092 15.43 24.6128 15.4336C24.6164 15.4372 24.6185 15.4421 24.6185 15.4471V31.9678C24.6185 31.9764 24.615 31.9845 24.6089 31.9906C24.6027 31.9966 24.5944 32 24.5857 32H9.47216C9.45958 32 9.44752 31.995 9.43863 31.9861C9.42974 31.9772 9.42475 31.9652 9.42475 31.9526V26.4636C9.42478 26.452 9.42043 26.4409 9.41257 26.4324C9.40472 26.4239 9.39394 26.4187 9.38241 26.4179C9.29286 26.4111 9.22569 26.4276 9.18091 26.4675C8.89419 26.7209 8.56682 26.9783 8.22591 27.1347C7.34089 27.5407 6.45023 27.5738 5.55393 27.234C3.52595 26.4647 2.87517 23.874 4.17899 22.1847C5.03748 21.0722 6.57723 20.7166 7.89854 21.1461C8.32976 21.2861 8.73201 21.5173 9.10528 21.8398C9.12348 21.8558 9.14669 21.8648 9.17076 21.8652L9.39822 21.8709Z" fill="#FF5700"/>
<path d="M119.332 12.103C119.332 12.199 119.332 12.301 119.332 12.409C119.332 12.505 119.326 12.613 119.314 12.733C119.806 12.109 120.334 11.659 120.898 11.383C121.474 11.107 122.17 10.969 122.986 10.969C124.426 10.969 125.566 11.389 126.406 12.229C127.354 13.189 127.828 14.569 127.828 16.369C127.828 17.197 127.714 17.941 127.486 18.601C127.27 19.249 126.952 19.807 126.532 20.275C126.112 20.731 125.602 21.079 125.002 21.319C124.402 21.559 123.718 21.679 122.95 21.679C121.378 21.679 120.166 21.103 119.314 19.951C119.314 20.059 119.314 20.137 119.314 20.185C119.314 20.233 119.32 20.347 119.332 20.527C119.344 20.587 119.35 20.689 119.35 20.833C119.35 20.977 119.35 21.133 119.35 21.301V22.669C119.35 23.197 119.356 23.635 119.368 23.983C119.392 24.331 119.428 24.691 119.476 25.063H116.938C116.986 24.643 117.016 24.253 117.028 23.893C117.052 23.545 117.064 23.143 117.064 22.687V13.633C117.064 13.117 117.052 12.685 117.028 12.337C117.016 11.977 116.986 11.605 116.938 11.221H119.332V12.103ZM125.488 16.333C125.488 15.265 125.224 14.425 124.696 13.813C124.18 13.201 123.466 12.895 122.554 12.895C122.11 12.895 121.696 12.985 121.312 13.165C120.928 13.333 120.598 13.573 120.322 13.885C120.046 14.185 119.824 14.545 119.656 14.965C119.5 15.373 119.422 15.817 119.422 16.297C119.422 16.813 119.5 17.287 119.656 17.719C119.812 18.139 120.034 18.505 120.322 18.817C120.61 19.117 120.946 19.357 121.33 19.537C121.726 19.705 122.158 19.789 122.626 19.789C123.514 19.789 124.21 19.483 124.714 18.871C125.23 18.247 125.488 17.401 125.488 16.333Z" fill="#1B1D1E"/>
<path d="M113.59 14.677C113.494 14.401 113.404 14.185 113.32 14.029C113.248 13.873 113.152 13.723 113.032 13.579C112.588 13.027 111.97 12.751 111.178 12.751C110.29 12.751 109.588 13.075 109.072 13.723C108.568 14.359 108.316 15.241 108.316 16.369C108.316 17.497 108.574 18.385 109.09 19.033C109.618 19.681 110.338 20.005 111.25 20.005C112.162 20.005 112.852 19.669 113.32 18.997C113.404 18.865 113.47 18.739 113.518 18.619C113.566 18.499 113.62 18.325 113.68 18.097L115.912 18.547C115.78 18.907 115.66 19.201 115.552 19.429C115.456 19.645 115.324 19.861 115.156 20.077C114.724 20.677 114.172 21.127 113.5 21.427C112.828 21.739 112.06 21.895 111.196 21.895C110.404 21.895 109.684 21.763 109.036 21.499C108.4 21.247 107.854 20.887 107.398 20.419C106.942 19.939 106.588 19.363 106.336 18.691C106.096 18.007 105.976 17.251 105.976 16.423C105.976 15.571 106.102 14.791 106.354 14.083C106.618 13.375 107.002 12.769 107.506 12.265C107.95 11.809 108.478 11.467 109.09 11.239C109.702 11.011 110.38 10.897 111.124 10.897C112.012 10.897 112.798 11.065 113.482 11.401C114.166 11.725 114.724 12.205 115.156 12.841C115.276 13.021 115.378 13.201 115.462 13.381C115.546 13.561 115.654 13.819 115.786 14.155L113.59 14.677Z" fill="#1B1D1E"/>
<path d="M88.952 21.553C89 21.169 89.03 20.809 89.042 20.473C89.066 20.125 89.078 19.705 89.078 19.213V13.561C89.078 13.273 89.072 13.027 89.06 12.823C89.06 12.607 89.054 12.409 89.042 12.229C89.042 12.049 89.03 11.881 89.006 11.725C88.994 11.557 88.976 11.389 88.952 11.221H91.364V12.139C91.364 12.199 91.364 12.289 91.364 12.409C91.364 12.529 91.358 12.661 91.346 12.805C91.61 12.253 92.042 11.815 92.642 11.491C93.254 11.167 93.938 11.005 94.694 11.005C95.678 11.005 96.452 11.275 97.016 11.815C97.184 11.959 97.31 12.109 97.394 12.265C97.49 12.409 97.592 12.619 97.7 12.895C98 12.487 98.258 12.187 98.474 11.995C98.69 11.791 98.936 11.617 99.212 11.473C99.512 11.305 99.818 11.185 100.13 11.113C100.454 11.041 100.82 11.005 101.228 11.005C102.404 11.005 103.304 11.347 103.928 12.031C104.228 12.355 104.444 12.733 104.576 13.165C104.708 13.585 104.774 14.119 104.774 14.767V19.213C104.774 19.717 104.78 20.143 104.792 20.491C104.816 20.827 104.858 21.181 104.918 21.553H102.29C102.314 21.373 102.332 21.199 102.344 21.031C102.368 20.863 102.386 20.689 102.398 20.509C102.41 20.329 102.416 20.137 102.416 19.933C102.428 19.717 102.434 19.477 102.434 19.213V15.181C102.434 14.389 102.29 13.807 102.002 13.435C101.726 13.063 101.282 12.877 100.67 12.877C100.094 12.877 99.602 13.057 99.194 13.417C98.882 13.693 98.642 13.993 98.474 14.317C98.306 14.641 98.168 15.085 98.06 15.649V19.213C98.06 19.717 98.066 20.143 98.078 20.491C98.102 20.827 98.138 21.181 98.186 21.553H95.594C95.618 21.361 95.636 21.181 95.648 21.013C95.672 20.845 95.69 20.671 95.702 20.491C95.714 20.311 95.72 20.119 95.72 19.915C95.732 19.699 95.738 19.465 95.738 19.213V15.181C95.738 13.669 95.156 12.913 93.992 12.913C93.236 12.913 92.618 13.225 92.138 13.849C92.042 13.981 91.952 14.107 91.868 14.227C91.796 14.347 91.73 14.479 91.67 14.623C91.61 14.755 91.556 14.905 91.508 15.073C91.46 15.241 91.412 15.433 91.364 15.649V19.213C91.364 19.453 91.364 19.675 91.364 19.879C91.376 20.071 91.382 20.257 91.382 20.437C91.394 20.617 91.406 20.797 91.418 20.977C91.442 21.157 91.466 21.349 91.49 21.553H88.952Z" fill="#1B1D1E"/>
<path d="M79.0355 21.553C78.6875 21.553 78.3995 21.553 78.1715 21.553C77.9435 21.553 77.7455 21.559 77.5775 21.571C77.4215 21.583 77.2775 21.595 77.1455 21.607C77.0135 21.619 76.8695 21.631 76.7135 21.643C76.7735 21.127 76.8335 20.695 76.8935 20.347C76.9655 19.999 77.0615 19.663 77.1815 19.339C77.6615 18.043 78.4835 16.867 79.6475 15.811C79.8035 15.667 79.9595 15.535 80.1155 15.415C80.2835 15.283 80.4755 15.139 80.6915 14.983C80.9075 14.815 81.1655 14.623 81.4655 14.407C81.7775 14.191 82.1615 13.933 82.6175 13.633C83.0255 13.345 83.3675 13.093 83.6435 12.877C83.9315 12.649 84.1535 12.433 84.3095 12.229C84.4775 12.025 84.5975 11.827 84.6695 11.635C84.7415 11.431 84.7775 11.215 84.7775 10.987C84.7775 10.375 84.5555 9.895 84.1115 9.547C83.6675 9.187 83.0615 9.007 82.2935 9.007C81.2255 9.007 80.4635 9.361 80.0075 10.069C79.8515 10.285 79.7315 10.513 79.6475 10.753C79.5755 10.981 79.5095 11.305 79.4495 11.725L76.8755 11.419C76.9955 10.735 77.1455 10.183 77.3255 9.763C77.5175 9.331 77.7815 8.923 78.1175 8.539C79.0415 7.471 80.4155 6.937 82.2395 6.937C83.0315 6.937 83.7395 7.033 84.3635 7.225C84.9875 7.405 85.5215 7.669 85.9655 8.017C86.4095 8.353 86.7455 8.767 86.9735 9.259C87.2135 9.751 87.3335 10.303 87.3335 10.915C87.3335 11.515 87.2315 12.043 87.0275 12.499C86.8235 12.943 86.4995 13.375 86.0555 13.795C85.9235 13.915 85.8035 14.023 85.6955 14.119C85.5875 14.215 85.4315 14.335 85.2275 14.479C85.0355 14.623 84.7655 14.815 84.4175 15.055C84.0815 15.295 83.6195 15.613 83.0315 16.009C82.6355 16.285 82.2335 16.597 81.8255 16.945C81.4295 17.281 81.1175 17.569 80.8895 17.809C80.6135 18.097 80.4035 18.355 80.2595 18.583C80.1275 18.799 79.9955 19.081 79.8635 19.429H84.9035C85.4795 19.429 85.9835 19.417 86.4155 19.393C86.8595 19.369 87.2315 19.333 87.5315 19.285V21.661C87.1115 21.625 86.6975 21.595 86.2895 21.571C85.8815 21.559 85.3895 21.553 84.8135 21.553H79.0355Z" fill="#1B1D1E"/>
<path d="M68.9236 18.313C69.0796 18.925 69.3376 19.363 69.6976 19.627C70.0576 19.891 70.5916 20.023 71.2996 20.023C71.9716 20.023 72.4996 19.903 72.8836 19.663C73.2676 19.411 73.4596 19.075 73.4596 18.655C73.4596 18.271 73.3036 17.971 72.9916 17.755C72.9076 17.695 72.8296 17.647 72.7576 17.611C72.6856 17.575 72.5836 17.539 72.4516 17.503C72.3316 17.467 72.1636 17.425 71.9476 17.377C71.7436 17.329 71.4616 17.263 71.1016 17.179C70.7416 17.107 70.4356 17.041 70.1836 16.981C69.9316 16.909 69.7036 16.843 69.4996 16.783C69.3076 16.723 69.1336 16.663 68.9776 16.603C68.8216 16.543 68.6656 16.477 68.5096 16.405C67.9936 16.165 67.5976 15.841 67.3216 15.433C67.0576 15.013 66.9256 14.539 66.9256 14.011C66.9256 13.363 67.1116 12.805 67.4836 12.337C68.2156 11.401 69.4156 10.933 71.0836 10.933C72.5836 10.933 73.7116 11.281 74.4676 11.977C74.7076 12.205 74.8936 12.451 75.0256 12.715C75.1696 12.967 75.3076 13.315 75.4396 13.759L73.0636 14.065C72.9676 13.561 72.7576 13.201 72.4336 12.985C72.1216 12.757 71.6716 12.643 71.0836 12.643C70.5196 12.643 70.0636 12.757 69.7156 12.985C69.3796 13.213 69.2116 13.519 69.2116 13.903C69.2116 14.263 69.3976 14.545 69.7696 14.749C69.8656 14.797 69.9676 14.845 70.0756 14.893C70.1836 14.929 70.3036 14.971 70.4356 15.019C70.5676 15.055 70.7236 15.097 70.9036 15.145C71.0956 15.181 71.3176 15.229 71.5696 15.289C72.0256 15.385 72.4216 15.475 72.7576 15.559C73.0936 15.643 73.3816 15.727 73.6216 15.811C73.8616 15.895 74.0716 15.985 74.2516 16.081C74.4316 16.177 74.5936 16.279 74.7376 16.387C75.4336 16.891 75.7816 17.635 75.7816 18.619C75.7816 18.991 75.7036 19.363 75.5476 19.735C75.3916 20.095 75.1756 20.401 74.8996 20.653C74.0596 21.433 72.8176 21.823 71.1736 21.823C69.2896 21.823 67.9516 21.289 67.1596 20.221C66.9916 20.005 66.8596 19.789 66.7636 19.573C66.6676 19.345 66.5656 19.027 66.4576 18.619L68.9236 18.313Z" fill="#1B1D1E"/>
<path d="M63.5596 14.677C63.4636 14.401 63.3736 14.185 63.2896 14.029C63.2176 13.873 63.1216 13.723 63.0016 13.579C62.5576 13.027 61.9396 12.751 61.1476 12.751C60.2596 12.751 59.5576 13.075 59.0416 13.723C58.5376 14.359 58.2856 15.241 58.2856 16.369C58.2856 17.497 58.5436 18.385 59.0596 19.033C59.5876 19.681 60.3076 20.005 61.2196 20.005C62.1316 20.005 62.8216 19.669 63.2896 18.997C63.3736 18.865 63.4396 18.739 63.4876 18.619C63.5356 18.499 63.5896 18.325 63.6496 18.097L65.8816 18.547C65.7496 18.907 65.6296 19.201 65.5216 19.429C65.4256 19.645 65.2936 19.861 65.1256 20.077C64.6936 20.677 64.1416 21.127 63.4696 21.427C62.7976 21.739 62.0296 21.895 61.1656 21.895C60.3736 21.895 59.6536 21.763 59.0056 21.499C58.3696 21.247 57.8236 20.887 57.3676 20.419C56.9116 19.939 56.5576 19.363 56.3056 18.691C56.0656 18.007 55.9456 17.251 55.9456 16.423C55.9456 15.571 56.0716 14.791 56.3236 14.083C56.5876 13.375 56.9716 12.769 57.4756 12.265C57.9196 11.809 58.4476 11.467 59.0596 11.239C59.6716 11.011 60.3496 10.897 61.0936 10.897C61.9816 10.897 62.7676 11.065 63.4516 11.401C64.1356 11.725 64.6936 12.205 65.1256 12.841C65.2456 13.021 65.3476 13.201 65.4316 13.381C65.5156 13.561 65.6236 13.819 65.7556 14.155L63.5596 14.677Z" fill="#1B1D1E"/>
<path d="M49.989 21.895C49.161 21.895 48.417 21.763 47.757 21.499C47.097 21.247 46.533 20.887 46.065 20.419C45.597 19.939 45.237 19.363 44.985 18.691C44.733 18.007 44.607 17.245 44.607 16.405C44.607 15.565 44.733 14.809 44.985 14.137C45.237 13.465 45.597 12.889 46.065 12.409C46.533 11.929 47.097 11.563 47.757 11.311C48.417 11.047 49.155 10.915 49.971 10.915C50.787 10.915 51.519 11.047 52.167 11.311C52.827 11.563 53.385 11.929 53.841 12.409C54.309 12.877 54.669 13.447 54.921 14.119C55.173 14.791 55.299 15.541 55.299 16.369C55.299 17.197 55.173 17.953 54.921 18.637C54.669 19.321 54.309 19.903 53.841 20.383C53.385 20.863 52.827 21.235 52.167 21.499C51.519 21.763 50.793 21.895 49.989 21.895ZM49.971 12.787C49.023 12.787 48.279 13.111 47.739 13.759C47.199 14.395 46.929 15.277 46.929 16.405C46.929 17.521 47.199 18.397 47.739 19.033C48.279 19.669 49.017 19.987 49.953 19.987C50.889 19.987 51.627 19.675 52.167 19.051C52.707 18.415 52.977 17.545 52.977 16.441C52.977 15.277 52.713 14.377 52.185 13.741C51.669 13.105 50.931 12.787 49.971 12.787Z" fill="#1B1D1E"/>
<path d="M41.1145 20.671C41.1145 20.563 41.1145 20.461 41.1145 20.365C41.1145 20.257 41.1205 20.143 41.1325 20.023C40.8925 20.347 40.6525 20.623 40.4125 20.851C40.1725 21.079 39.9085 21.265 39.6205 21.409C39.3325 21.553 39.0145 21.655 38.6665 21.715C38.3185 21.775 37.9285 21.805 37.4965 21.805C36.2605 21.805 35.2585 21.499 34.4905 20.887C33.8785 20.419 33.4105 19.795 33.0865 19.015C32.7745 18.223 32.6185 17.341 32.6185 16.369C32.6185 15.541 32.7325 14.797 32.9605 14.137C33.1885 13.477 33.5125 12.913 33.9325 12.445C34.3525 11.977 34.8625 11.617 35.4625 11.365C36.0625 11.113 36.7345 10.987 37.4785 10.987C38.6065 10.987 39.5185 11.263 40.2145 11.815C40.3825 11.947 40.5265 12.079 40.6465 12.211C40.7665 12.343 40.9285 12.541 41.1325 12.805C41.1325 12.697 41.1325 12.619 41.1325 12.571C41.1325 12.523 41.1265 12.409 41.1145 12.229C41.1025 12.169 41.0965 12.067 41.0965 11.923C41.0965 11.767 41.0965 11.611 41.0965 11.455V9.655C41.0965 9.391 41.0905 9.151 41.0785 8.935C41.0785 8.719 41.0725 8.515 41.0605 8.323C41.0605 8.131 41.0485 7.951 41.0245 7.783C41.0125 7.603 40.9945 7.417 40.9705 7.225H43.5085C43.4605 7.657 43.4245 8.053 43.4005 8.413C43.3885 8.773 43.3825 9.181 43.3825 9.637V19.123C43.3825 19.651 43.3885 20.089 43.4005 20.437C43.4245 20.785 43.4605 21.157 43.5085 21.553H41.1145V20.671ZM34.9585 16.387C34.9585 16.927 35.0245 17.413 35.1565 17.845C35.3005 18.265 35.4985 18.631 35.7505 18.943C36.0145 19.243 36.3265 19.477 36.6865 19.645C37.0465 19.801 37.4545 19.879 37.9105 19.879C38.3905 19.879 38.8405 19.777 39.2605 19.573C39.6925 19.357 40.0465 19.063 40.3225 18.691C40.5505 18.391 40.7245 18.031 40.8445 17.611C40.9645 17.191 41.0245 16.747 41.0245 16.279C41.0245 15.835 40.9465 15.397 40.7905 14.965C40.6345 14.533 40.4245 14.173 40.1605 13.885C39.8845 13.573 39.5305 13.327 39.0985 13.147C38.6785 12.967 38.2525 12.877 37.8205 12.877C36.9445 12.877 36.2485 13.195 35.7325 13.831C35.2165 14.455 34.9585 15.307 34.9585 16.387Z" fill="#1B1D1E"/>
</svg>
